# xmcd
#
# Track frame offsets:
#	150
#	23827
#	40429
#	56605
#	75163
#	92618
#	110978
#	128437
#	144779
#	159745
#	176342
#	195170
#	211938
#	226565
#
# Disc length: 3259 seconds
#
# Revision: 2
# Processed by: cddbd v1.5.2PL0 Copyright (c) Steve Scherf et al.
# Submitted via: EasyCDDAExtractor 15.3.0.1
#
DISCID=a10cb90e
DTITLE=Emmanuel - Canciones De Amor
DYEAR=2012
DGENRE=Latin
TTITLE0=Todo Se Derrumbo Dentro De Mi
TTITLE1=Al Final
TTITLE2=Ven Con El Alma Desnuda
TTITLE3=Amor Sin Final
TTITLE4=Tu Y Yo
TTITLE5=El Dia Que Puedas
TTITLE6=Detenedla Ya
TTITLE7=Sin Caballero No Hay Dama
TTITLE8=Desesperado
TTITLE9=Insoportablemente Bella
TTITLE10=Pobre Diablo
TTITLE11=Esta Aventura
TTITLE12=Con Que Derecho
TTITLE13=Quiero Dormir Cansado
EXTD=YEAR: 2006
EXTT0=
EXTT1=
EXTT2=
EXTT3=
EXTT4=
EXTT5=
EXTT6=
EXTT7=
EXTT8=
EXTT9=
EXTT10=
EXTT11=
EXTT12=
EXTT13=
PLAYORDER=
